<svg width="202" height="32" viewBox="0 0 202 32" fill="none" xmlns="http://www.w3.org/2000/svg">
<path fill-rule="evenodd" clip-rule="evenodd" d="M151.695 1.41514V29.8596H156.051V9.97692L175.053 29.8596H176.725V1.41514H172.368V21.1129L153.543 1.41514H151.695ZM0 29.8596V1.41514H1.84851L20.6734 21.1129V1.41514H25.0302V29.8596H23.3584L4.35679 9.97692V29.8596H0ZM30.9785 5.49692V1.41514H50.2566V29.8596H30.9785V25.7636H45.8998V16.8036H34.8797V12.7076H45.8998V5.49692H30.9785ZM64.9345 29.8596L53.5442 1.41514H58.2426L65.7546 20.4303L72.9229 1.41514H73.9458L80.8752 20.4303L88.6433 1.41514H93.3416L81.3898 29.8596H79.9433L73.1867 11.5129L66.3525 29.8596H64.9345ZM116.73 1.40091V5.49692H108.415V17.6783V29.8596H104.059V5.49692H95.7437V1.40091H116.73ZM132.294 0.888916C123.751 0.888916 117.472 7.28891 117.472 15.6516C117.472 24.0143 123.751 30.4143 132.294 30.4143C140.837 30.4143 147.116 24.0143 147.116 15.6516C147.116 7.28891 140.837 0.888916 132.294 0.888916ZM132.294 26.4036C126.186 26.4036 121.829 21.9663 121.829 15.6516C121.829 9.33692 126.186 4.89958 132.294 4.89958C138.402 4.89958 142.759 9.33692 142.759 15.6516C142.759 21.9663 138.402 26.4036 132.294 26.4036ZM182.673 1.40091H201.951V29.8596H182.673V25.7636H197.594V16.8036H186.574V12.7076H197.594V5.49692H182.673V1.40091Z" fill="white"/>
</svg>
